<svg width="44" height="44" viewBox="0 0 44 44" fill="none" xmlns="http://www.w3.org/2000/svg">
<g opacity="0.64">
<rect x="0.000244141" y="-0.00012207" width="44.0001" height="44.0001" rx="22" fill="#E2ED5C"/>
<path d="M23.4106 11.4584H19.6624C19.2683 11.4584 18.9184 11.7102 18.7932 12.0838L15.4932 21.9318C15.2942 22.5257 15.736 23.1397 16.3623 23.1397H19.0876C19.6776 23.1397 20.114 23.6891 19.9805 24.2638L18.2531 31.7023C18.026 32.6801 19.3096 33.2592 19.8924 32.4419L28.3009 20.6494C28.7335 20.0426 28.2998 19.2005 27.5545 19.2005H23.0804C22.4356 19.2005 21.9924 18.5526 22.226 17.9517L24.265 12.7072C24.4986 12.1063 24.0554 11.4584 23.4106 11.4584Z" fill="#06070A"/>
</g>
</svg>
