<svg width="44" height="44" viewBox="0 0 44 44" fill="none" xmlns="http://www.w3.org/2000/svg">
<g opacity="0.64">
<rect x="0.000244141" width="43.9999" height="43.9999" rx="22" fill="#617DEA"/>
<rect x="0.000244141" width="43.9999" height="43.9999" rx="22" fill="#49C1B5"/>
<path d="M24.0501 18.9449V16.4735H29.7016V12.7079H14.3123V16.4735H19.9645V18.9429C15.3709 19.1539 11.917 20.0636 11.917 21.1535C11.917 22.2433 15.3726 23.1531 19.9645 23.3654V31.2817H24.0514V23.3647C28.6367 23.1531 32.0837 22.244 32.0837 21.1551C32.0837 20.0663 28.6367 19.1572 24.0514 18.9455L24.0501 18.9449ZM24.0514 22.6942V22.6922C23.9361 22.6995 23.3437 22.7351 22.0246 22.7351C20.97 22.7351 20.228 22.7052 19.9665 22.6915V22.6949C15.9082 22.5151 12.8789 21.8084 12.8789 20.9627C12.8789 20.1171 15.9085 19.4114 19.9665 19.2313V21.9908C20.2323 22.0091 20.9926 22.0539 22.0419 22.0539C23.3021 22.0539 23.9358 22.0014 24.0521 21.9908V19.2313C28.1024 19.4117 31.1247 20.1191 31.1247 20.9618C31.1247 21.8044 28.1011 22.5121 24.0521 22.6925" fill="white"/>
</g>
</svg>
