<svg width="44" height="44" viewBox="0 0 44 44" fill="none" xmlns="http://www.w3.org/2000/svg">
<g opacity="0.72">
<rect x="-0.000244141" width="44.0001" height="44.0001" rx="22" fill="#193989"/>
<g clip-path="url(#clip0_2_1034)">
<path d="M25.5842 24.8485L24.7894 25.6488L24.0167 24.854L23.6001 23.6174L22.4162 23.209L22.4139 22.439L21.6439 22.4413L21.2378 24.3952L21.6544 25.6593L19.8422 26.4623L19.2894 25.6671L19.6717 24.8678L19.6689 24.0153L18.4864 24.0194L16.9244 25.6744L15.741 25.2936L15.735 23.6435L13.6716 23.32L12.1894 24.1225L11.308 23.7403L11.3025 22.0632L12.0986 21.675L15.2561 20.0974L15.7245 20.481L16.9038 19.2949L16.901 18.5244L18.4631 16.9519L19.2555 15.2716L20.4311 13.3154L22.3827 12.924L23.1802 12.9213L23.1825 13.6913L24.7555 15.2537L24.7606 16.9312L27.2163 19.261L29.5864 20.8477L30.7698 21.229L31.1864 22.4102L32.7567 23.1756L31.9615 23.9749L31.1919 23.9777L31.1892 23.1806L30.0053 22.7988L28.0189 20.8532L26.4486 20.0607L24.7633 17.7017L23.991 16.9335L24.3719 15.6676L23.1853 14.4888L22.3901 15.2611L22.3956 16.939L21.6283 17.7118L23.2009 19.2738L22.4061 20.0736L24.0062 21.636L24.0089 22.4335L24.7839 23.9983L25.5814 23.996L26.4587 23.1958L26.0453 22.8121L25.5737 21.631L26.4537 21.6282L27.2287 23.1935L28.029 23.9882L25.5842 24.8485Z" fill="white"/>
<path d="M11.3319 31.0554L11.3181 26.8754L12.1967 26.4877L12.2119 31.0531L11.3319 31.0554Z" fill="white"/>
<path d="M15.842 31.0407C14.962 31.0435 14.962 31.0435 14.962 31.0435C14.9556 29.228 14.9556 29.228 14.9556 29.228C14.9538 28.6785 14.7338 28.5139 14.4038 28.5148C14.0188 28.5162 13.8542 28.6821 13.8561 29.2317C13.862 31.0467 13.862 31.0467 13.862 31.0467C13.01 31.0494 13.01 31.0494 13.01 31.0494C12.9985 27.7224 12.9985 27.7224 12.9985 27.7224C13.851 27.7196 13.851 27.7196 13.851 27.7196C13.852 27.9671 13.852 27.9671 13.852 27.9671C14.016 27.8017 14.2356 27.6633 14.6481 27.6619C15.4181 27.6591 15.8324 28.2078 15.8356 29.1428" fill="white"/>
<path d="M19.3783 27.7013C18.2068 31.0334 18.2068 31.0334 18.2068 31.0334C17.3268 31.0361 17.3268 31.0361 17.3268 31.0361C16.1333 27.7123 16.1333 27.7123 16.1333 27.7123C17.0963 27.7091 17.0963 27.7091 17.0963 27.7091C17.5683 29.2198 17.5683 29.2198 17.5683 29.2198C17.6522 29.5223 17.7081 29.8523 17.7906 29.9893C17.7902 29.8518 17.8722 29.5213 17.9529 29.2184C18.4158 27.7045 18.4158 27.7045 18.4158 27.7045" fill="white"/>
<path d="M21.7476 28.9589C21.6642 28.6564 21.4983 28.4098 21.1133 28.4107C20.7008 28.4121 20.4817 28.6601 20.4001 28.9635M21.2045 31.0778C20.2415 31.081 19.5247 30.3958 19.5215 29.3508C19.5178 28.3328 20.2305 27.643 21.1105 27.6403C22.0455 27.6375 22.5983 28.4057 22.6015 29.3407C22.602 29.5052 22.602 29.5052 22.6024 29.6707C20.4024 29.678 20.4024 29.678 20.4024 29.678C20.4863 30.0626 20.8718 30.2267 21.2018 30.2253C21.3393 30.2248 21.6693 30.1409 21.8333 29.9759C22.4402 30.4691 22.4402 30.4691 22.4402 30.4691C22.1395 30.9375 21.5075 31.0769 21.2045 31.0778Z" fill="white"/>
<path d="M24.5021 30.2973C24.8046 30.2964 24.9696 30.2134 24.9692 30.0484C24.9683 29.8289 24.6658 29.7468 24.5008 29.7473C23.8678 29.5846 23.0698 29.5044 23.0671 28.6523C23.0652 28.0198 23.6964 27.6321 24.4114 27.6303C24.8793 27.6289 25.3468 27.765 25.6782 28.0116C25.2125 28.6455 25.2125 28.6455 25.2125 28.6455C24.9646 28.4814 24.6616 28.3998 24.4141 28.4007C24.0291 28.4016 23.9466 28.4846 23.9471 28.6496C23.9475 28.7871 24.415 28.8678 24.6635 28.9498C25.2964 29.1125 25.8469 29.2757 25.8492 29.9632C25.8519 30.6782 25.1378 31.065 24.4228 31.0678C23.8728 31.0696 23.4049 30.8514 22.9915 30.6053C23.4846 30.0535 23.4846 30.0535 23.4846 30.0535C23.7867 30.2171 24.1171 30.2987 24.5021 30.2973Z" fill="white"/>
<path d="M27.9612 28.4709C27.4937 28.4723 27.1101 28.8586 27.1115 29.3261C27.1128 29.8211 27.4997 30.2048 27.9667 30.2034C28.2967 30.2025 28.5158 30.0366 28.6803 29.8161C29.3972 30.3634 29.3972 30.3634 29.3972 30.3634C29.0685 30.7497 28.5195 31.0536 27.9695 31.0554C27.0345 31.0582 26.2347 30.2914 26.2315 29.3289C26.2282 28.3939 27.0235 27.6211 27.9585 27.6179C28.5085 27.6161 29.0594 27.9168 29.3908 28.3008C28.6771 28.8531 28.6771 28.8531 28.6771 28.8531C28.5117 28.6345 28.2908 28.47 27.9612 28.4709Z" fill="white"/>
<path d="M32.144 29.31C32.1427 28.842 31.8113 28.4584 31.3438 28.4598C30.7938 28.4616 30.4931 28.8475 30.494 29.3155C30.4959 29.8105 30.7993 30.1941 31.3493 30.1927C31.8172 30.1909 32.1459 29.805 32.144 29.31ZM32.9965 29.3068C32.9997 30.2693 32.315 31.0411 31.352 31.0443C30.417 31.0475 29.6172 30.2803 29.614 29.3178C29.6108 28.3828 30.406 27.6096 31.341 27.6068C32.3035 27.6041 32.9933 28.3718 32.9965 29.3068Z" fill="white"/>
</g>
</g>
<defs>
<clipPath id="clip0_2_1034">
<rect width="22.0001" height="18.3334" fill="white" transform="translate(11 12.8334)"/>
</clipPath>
</defs>
</svg>
